<svg width="15" height="14" viewBox="0 0 15 14" fill="none" xmlns="http://www.w3.org/2000/svg">
<path d="M14.5455 2.5C14.5455 3.88125 13.3831 5 11.9481 5C11.2045 5 10.5325 4.7 10.0617 4.19063L5.15909 6.57812C5.18182 6.71562 5.19481 6.85625 5.19481 7C5.19481 7.14375 5.18182 7.28438 5.15909 7.42188L10.0617 9.78125C10.5325 9.3 11.2045 9 11.9481 9C13.3831 9 14.5455 10.1187 14.5455 11.5C14.5455 12.8813 13.3831 14 11.9481 14C10.513 14 9.35065 12.8813 9.35065 11.5C9.35065 11.1969 9.40584 10.8781 9.50974 10.6344L4.77922 8.35938C4.31494 9.04688 3.51299 9.5 2.5974 9.5C1.16299 9.5 0 8.38125 0 7C0 5.61875 1.16299 4.5 2.5974 4.5C3.51299 4.5 4.31494 4.95312 4.77922 5.64062L9.50974 3.36562C9.40584 3.09375 9.35065 2.80312 9.35065 2.5C9.35065 1.11937 10.513 0 11.9481 0C13.3831 0 14.5455 1.11937 14.5455 2.5ZM2.56818 8.5C3.45779 8.5 4.12662 7.82812 4.12662 7C4.12662 6.17188 3.45779 5.5 2.56818 5.5C1.73669 5.5 1.00974 6.17188 1.00974 7C1.00974 7.82812 1.73669 8.5 2.56818 8.5ZM11.9481 1C11.0877 1 10.3896 1.67156 10.3896 2.5C10.3896 3.32812 11.0877 4 11.9481 4C12.8084 4 13.5065 3.32812 13.5065 2.5C13.5065 1.67156 12.8084 1 11.9481 1ZM11.9481 13C12.8084 13 13.5065 12.3281 13.5065 11.5C13.5065 10.6719 12.8084 10 11.9481 10C11.0877 10 10.3896 10.6719 10.3896 11.5C10.3896 12.3281 11.0877 13 11.9481 13Z" fill="#656565"/>
</svg>
