<svg width="25" height="25" viewBox="0 0 25 25" fill="none" xmlns="http://www.w3.org/2000/svg">
<path d="M12.5 14.0625C16.3833 14.0625 19.5312 10.9146 19.5312 7.03125C19.5312 3.14795 16.3833 0 12.5 0C8.61719 0 5.46875 3.14795 5.46875 7.03125C5.46875 10.9146 8.61816 14.0625 12.5 14.0625ZM12.5 1.5625C15.5156 1.5625 17.9688 4.01562 17.9688 7.03125C17.9688 10.0488 15.5176 12.5 12.5 12.5C9.48242 12.5 7.03125 10.0488 7.03125 7.03125C7.03125 4.01562 9.48242 1.5625 12.5 1.5625ZM17.1436 15.625H7.8125C3.49805 15.625 0 19.1226 0 23.4375C0 24.3003 0.699707 25 1.51855 25H23.4375C24.3003 25 24.9561 24.3003 24.9561 23.4375C25 19.1211 21.5039 15.625 17.1436 15.625ZM1.5625 23.4375C1.5625 19.9912 4.36621 17.1875 7.8125 17.1875H17.1436C20.6348 17.1875 23.4375 19.9902 23.4375 23.4375H1.5625Z" fill="#656565"/>
</svg>
