<svg width="24" height="24" viewBox="0 0 24 24" fill="none" xmlns="http://www.w3.org/2000/svg">
<path d="M12.4358 23.5811H22.067C22.642 23.5811 23.0733 23.2936 23.3608 22.8624C23.6483 22.4311 23.6483 21.8561 23.3608 21.4249L22.067 18.5499C23.217 16.5374 23.9358 14.3811 23.9358 12.0811C23.9358 5.75612 18.7608 0.581116 12.4358 0.581116C6.11079 0.581116 0.935791 5.75612 0.935791 12.0811C0.935791 18.4061 6.11079 23.5811 12.4358 23.5811ZM21.6358 21.8561H12.4358C7.11704 21.8561 2.66079 17.5436 2.66079 12.0811C2.66079 6.61862 6.97329 2.30612 12.4358 2.30612C17.8983 2.30612 22.2108 6.76237 22.2108 12.0811C22.2108 14.0936 21.6358 15.9624 20.4858 17.6874C20.1983 18.1186 20.1983 18.6936 20.342 19.1249L21.6358 21.8561Z" fill="#656565"/>
</svg>
