<svg width="22" height="22" viewBox="0 0 22 22" fill="none" xmlns="http://www.w3.org/2000/svg">
<g clip-path="url(#clip0_70_375)">
<path d="M10.3858 19.4811C5.13579 19.4811 0.935791 15.2811 0.935791 10.0311C0.935791 4.78112 5.13579 0.581116 10.3858 0.581116C15.6358 0.581116 19.8358 4.78112 19.8358 10.0311C19.8358 15.1499 15.5045 19.4811 10.3858 19.4811ZM10.3858 2.15612C6.05454 2.15612 2.64204 5.69987 2.64204 9.89987C2.64204 14.2311 6.18579 17.6436 10.3858 17.6436C14.717 17.6436 18.1295 14.0999 18.1295 9.89987C18.1295 5.69987 14.717 2.15612 10.3858 2.15612Z" fill="#656565"/>
<path d="M21.1483 21.5811C20.8858 21.5811 20.7545 21.4499 20.6233 21.3186L16.292 16.9874C16.0295 16.7249 16.0295 16.1999 16.292 15.8061C16.5545 15.5436 17.0795 15.5436 17.4733 15.8061L21.8045 20.1374C22.067 20.3999 22.067 20.9249 21.8045 21.3186C21.542 21.4499 21.2795 21.5811 21.1483 21.5811Z" fill="#656565"/>
</g>
<defs>
<clipPath id="clip0_70_375">
<rect width="21" height="21" fill="white" transform="translate(0.935791 0.581116)"/>
</clipPath>
</defs>
</svg>
